<svg width="356" height="49" viewBox="0 0 356 49" fill="none" xmlns="http://www.w3.org/2000/svg">
<g filter="url(#filter0_d_156_644)">
<rect x="23.8995" width="14" height="14" rx="1" transform="rotate(45 23.8995 0)" fill="#F45F63"/>
<rect x="36.8995" y="13" width="14" height="14" rx="1" transform="rotate(45 36.8995 13)" fill="#1E98F5"/>
<rect x="10.8995" y="13" width="14" height="14" rx="1" transform="rotate(45 10.8995 13)" fill="#E5AA20"/>
<rect x="23.8995" y="26" width="14" height="14" rx="1" transform="rotate(45 23.8995 26)" fill="#68707C"/>
</g>
<path d="M63.1961 33.8995V12.0814H76.7259V14.9152H66.488V21.5629H75.7565V24.386H66.488V33.8995H63.1961ZM86.3999 34.2298C84.7877 34.2298 83.3992 33.8853 82.2344 33.1964C81.0768 32.5004 80.1819 31.5238 79.5498 30.2667C78.9248 29.0025 78.6123 27.5217 78.6123 25.8243C78.6123 24.1481 78.9248 22.6708 79.5498 21.3924C80.1819 20.114 81.0626 19.1162 82.1918 18.3988C83.3282 17.6815 84.6563 17.3228 86.1762 17.3228C87.0995 17.3228 87.9944 17.4755 88.8609 17.7809C89.7273 18.0863 90.505 18.5657 91.194 19.2191C91.8829 19.8725 92.4262 20.7213 92.8239 21.7653C93.2217 22.8022 93.4205 24.0629 93.4205 25.5473V26.6765H80.4127V24.2902H90.2991C90.2991 23.4521 90.1286 22.7099 89.7877 22.0636C89.4468 21.4102 88.9674 20.8953 88.3495 20.5189C87.7387 20.1424 87.0214 19.9542 86.1975 19.9542C85.3026 19.9542 84.5214 20.1744 83.8538 20.6147C83.1932 21.048 82.6819 21.6162 82.3197 22.3193C81.9645 23.0153 81.787 23.7717 81.787 24.5885V26.4528C81.787 27.5466 81.9788 28.477 82.3623 29.244C82.7529 30.011 83.2962 30.597 83.9922 31.0018C84.6883 31.3995 85.5015 31.5984 86.4319 31.5984C87.0356 31.5984 87.586 31.5132 88.0832 31.3427C88.5803 31.1652 89.01 30.9024 89.3722 30.5544C89.7344 30.2064 90.0114 29.7767 90.2032 29.2653L93.2181 29.8086C92.9766 30.6964 92.5434 31.4741 91.9184 32.1417C91.3005 32.8022 90.5228 33.3171 89.5853 33.6865C88.6549 34.0487 87.5931 34.2298 86.3999 34.2298ZM100.17 12.0814V33.8995H96.9848V12.0814H100.17ZM107.671 12.0814V33.8995H104.485V12.0814H107.671ZM119.039 34.2298C117.427 34.2298 116.038 33.8853 114.873 33.1964C113.716 32.5004 112.821 31.5238 112.189 30.2667C111.564 29.0025 111.251 27.5217 111.251 25.8243C111.251 24.1481 111.564 22.6708 112.189 21.3924C112.821 20.114 113.701 19.1162 114.831 18.3988C115.967 17.6815 117.295 17.3228 118.815 17.3228C119.738 17.3228 120.633 17.4755 121.5 17.7809C122.366 18.0863 123.144 18.5657 123.833 19.2191C124.522 19.8725 125.065 20.7213 125.463 21.7653C125.86 22.8022 126.059 24.0629 126.059 25.5473V26.6765H113.052V24.2902H122.938C122.938 23.4521 122.767 22.7099 122.427 22.0636C122.086 21.4102 121.606 20.8953 120.988 20.5189C120.378 20.1424 119.66 19.9542 118.836 19.9542C117.941 19.9542 117.16 20.1744 116.493 20.6147C115.832 21.048 115.321 21.6162 114.958 22.3193C114.603 23.0153 114.426 23.7717 114.426 24.5885V26.4528C114.426 27.5466 114.618 28.477 115.001 29.244C115.392 30.011 115.935 30.597 116.631 31.0018C117.327 31.3995 118.14 31.5984 119.071 31.5984C119.674 31.5984 120.225 31.5132 120.722 31.3427C121.219 31.1652 121.649 30.9024 122.011 30.5544C122.373 30.2064 122.65 29.7767 122.842 29.2653L125.857 29.8086C125.615 30.6964 125.182 31.4741 124.557 32.1417C123.939 32.8022 123.162 33.3171 122.224 33.6865C121.294 34.0487 120.232 34.2298 119.039 34.2298ZM141.886 21.5309L138.999 22.0423C138.878 21.673 138.686 21.3214 138.423 20.9876C138.168 20.6538 137.82 20.3804 137.379 20.1673C136.939 19.9542 136.389 19.8477 135.728 19.8477C134.826 19.8477 134.073 20.0501 133.469 20.4549C132.866 20.8527 132.564 21.3676 132.564 21.9997C132.564 22.5466 132.766 22.9869 133.171 23.3207C133.576 23.6545 134.229 23.9279 135.131 24.141L137.731 24.7376C139.237 25.0856 140.359 25.6218 141.097 26.3463C141.836 27.0707 142.205 28.0118 142.205 29.1694C142.205 30.1495 141.921 31.0231 141.353 31.7902C140.792 32.5501 140.007 33.1467 138.999 33.5799C137.997 34.0132 136.836 34.2298 135.515 34.2298C133.683 34.2298 132.188 33.8392 131.03 33.0579C129.872 32.2696 129.162 31.151 128.899 29.7021L131.978 29.2333C132.17 30.0359 132.564 30.6431 133.161 31.0551C133.757 31.4599 134.535 31.6623 135.494 31.6623C136.538 31.6623 137.372 31.4457 137.997 31.0125C138.622 30.5721 138.935 30.0359 138.935 29.4038C138.935 28.8924 138.743 28.4627 138.359 28.1147C137.983 27.7667 137.404 27.5039 136.623 27.3264L133.853 26.7191C132.326 26.3711 131.197 25.8171 130.465 25.0572C129.741 24.2973 129.379 23.3349 129.379 22.1701C129.379 21.2042 129.648 20.3591 130.188 19.6346C130.728 18.9102 131.474 18.3456 132.425 17.9407C133.377 17.5288 134.467 17.3228 135.696 17.3228C137.465 17.3228 138.857 17.7064 139.872 18.4734C140.888 19.2333 141.559 20.2525 141.886 21.5309ZM161.026 33.8995H153.963V12.0814H161.25C163.387 12.0814 165.223 12.5181 166.757 13.3917C168.292 14.2582 169.467 15.5046 170.284 17.1311C171.108 18.7504 171.52 20.6929 171.52 22.9585C171.52 25.2312 171.104 27.1843 170.273 28.8179C169.449 30.4514 168.256 31.7085 166.694 32.5892C165.131 33.4627 163.242 33.8995 161.026 33.8995ZM157.255 31.0231H160.845C162.507 31.0231 163.888 30.7106 164.989 30.0856C166.09 29.4535 166.914 28.5409 167.461 27.3477C168.007 26.1474 168.281 24.6843 168.281 22.9585C168.281 21.2468 168.007 19.7944 167.461 18.6012C166.921 17.4081 166.115 16.5025 165.042 15.8846C163.97 15.2667 162.638 14.9578 161.047 14.9578H157.255V31.0231ZM182.44 34.2298C180.828 34.2298 179.439 33.8853 178.275 33.1964C177.117 32.5004 176.222 31.5238 175.59 30.2667C174.965 29.0025 174.652 27.5217 174.652 25.8243C174.652 24.1481 174.965 22.6708 175.59 21.3924C176.222 20.114 177.103 19.1162 178.232 18.3988C179.368 17.6815 180.696 17.3228 182.216 17.3228C183.14 17.3228 184.034 17.4755 184.901 17.7809C185.767 18.0863 186.545 18.5657 187.234 19.2191C187.923 19.8725 188.466 20.7213 188.864 21.7653C189.262 22.8022 189.461 24.0629 189.461 25.5473V26.6765H176.453V24.2902H186.339C186.339 23.4521 186.169 22.7099 185.828 22.0636C185.487 21.4102 185.007 20.8953 184.39 20.5189C183.779 20.1424 183.061 19.9542 182.238 19.9542C181.343 19.9542 180.561 20.1744 179.894 20.6147C179.233 21.048 178.722 21.6162 178.36 22.3193C178.005 23.0153 177.827 23.7717 177.827 24.5885V26.4528C177.827 27.5466 178.019 28.477 178.402 29.244C178.793 30.011 179.336 30.597 180.032 31.0018C180.728 31.3995 181.542 31.5984 182.472 31.5984C183.076 31.5984 183.626 31.5132 184.123 31.3427C184.62 31.1652 185.05 30.9024 185.412 30.5544C185.775 30.2064 186.051 29.7767 186.243 29.2653L189.258 29.8086C189.017 30.6964 188.583 31.4741 187.958 32.1417C187.341 32.8022 186.563 33.3171 185.625 33.6865C184.695 34.0487 183.633 34.2298 182.44 34.2298ZM205.287 21.5309L202.4 22.0423C202.279 21.673 202.087 21.3214 201.825 20.9876C201.569 20.6538 201.221 20.3804 200.781 20.1673C200.34 19.9542 199.79 19.8477 199.129 19.8477C198.227 19.8477 197.474 20.0501 196.871 20.4549C196.267 20.8527 195.965 21.3676 195.965 21.9997C195.965 22.5466 196.168 22.9869 196.572 23.3207C196.977 23.6545 197.631 23.9279 198.533 24.141L201.132 24.7376C202.638 25.0856 203.76 25.6218 204.499 26.3463C205.237 27.0707 205.607 28.0118 205.607 29.1694C205.607 30.1495 205.322 31.0231 204.754 31.7902C204.193 32.5501 203.408 33.1467 202.4 33.5799C201.398 34.0132 200.237 34.2298 198.916 34.2298C197.084 34.2298 195.589 33.8392 194.431 33.0579C193.273 32.2696 192.563 31.151 192.3 29.7021L195.379 29.2333C195.571 30.0359 195.965 30.6431 196.562 31.0551C197.158 31.4599 197.936 31.6623 198.895 31.6623C199.939 31.6623 200.773 31.4457 201.398 31.0125C202.023 30.5721 202.336 30.0359 202.336 29.4038C202.336 28.8924 202.144 28.4627 201.761 28.1147C201.384 27.7667 200.805 27.5039 200.024 27.3264L197.254 26.7191C195.727 26.3711 194.598 25.8171 193.866 25.0572C193.142 24.2973 192.78 23.3349 192.78 22.1701C192.78 21.2042 193.05 20.3591 193.589 19.6346C194.129 18.9102 194.875 18.3456 195.827 17.9407C196.778 17.5288 197.869 17.3228 199.097 17.3228C200.866 17.3228 202.258 17.7064 203.273 18.4734C204.289 19.2333 204.96 20.2525 205.287 21.5309ZM209.139 33.8995V17.5359H212.324V33.8995H209.139ZM210.748 15.011C210.194 15.011 209.718 14.8264 209.32 14.4571C208.929 14.0806 208.734 13.6332 208.734 13.1147C208.734 12.5892 208.929 12.1417 209.32 11.7724C209.718 11.396 210.194 11.2078 210.748 11.2078C211.301 11.2078 211.774 11.396 212.164 11.7724C212.562 12.1417 212.761 12.5892 212.761 13.1147C212.761 13.6332 212.562 14.0806 212.164 14.4571C211.774 14.8264 211.301 15.011 210.748 15.011ZM223.5 40.3768C222.201 40.3768 221.082 40.2064 220.145 39.8654C219.214 39.5245 218.454 39.0735 217.865 38.5125C217.275 37.9514 216.835 37.337 216.544 36.6694L219.282 35.5402C219.473 35.8527 219.729 36.1829 220.049 36.5309C220.375 36.886 220.816 37.1879 221.37 37.4365C221.931 37.685 222.652 37.8093 223.532 37.8093C224.74 37.8093 225.738 37.5146 226.526 36.9251C227.314 36.3427 227.708 35.4123 227.708 34.1339V30.9166H227.506C227.314 31.2646 227.037 31.6517 226.675 32.0778C226.32 32.5039 225.83 32.8733 225.205 33.1858C224.58 33.4983 223.767 33.6545 222.765 33.6545C221.473 33.6545 220.308 33.3527 219.271 32.749C218.241 32.1382 217.424 31.2397 216.821 30.0537C216.224 28.8605 215.926 27.3939 215.926 25.6538C215.926 23.9137 216.221 22.4223 216.81 21.1794C217.407 19.9365 218.223 18.9848 219.26 18.3243C220.297 17.6566 221.473 17.3228 222.787 17.3228C223.802 17.3228 224.623 17.4933 225.248 17.8342C225.873 18.168 226.359 18.5586 226.707 19.0061C227.062 19.4535 227.336 19.8477 227.527 20.1886H227.762V17.5359H230.883V34.2618C230.883 35.668 230.556 36.8221 229.903 37.7241C229.25 38.6261 228.365 39.2937 227.25 39.727C226.142 40.1602 224.892 40.3768 223.5 40.3768ZM223.468 31.0125C224.385 31.0125 225.159 30.7994 225.791 30.3733C226.43 29.94 226.913 29.3221 227.24 28.5196C227.573 27.7099 227.74 26.7404 227.74 25.6112C227.74 24.5103 227.577 23.5409 227.25 22.7028C226.924 21.8647 226.444 21.2113 225.812 20.7426C225.18 20.2667 224.399 20.0288 223.468 20.0288C222.51 20.0288 221.711 20.2774 221.071 20.7745C220.432 21.2646 219.949 21.9322 219.623 22.7774C219.303 23.6225 219.143 24.5671 219.143 25.6112C219.143 26.6836 219.306 27.6247 219.633 28.4343C219.96 29.244 220.443 29.8761 221.082 30.3306C221.728 30.7852 222.524 31.0125 223.468 31.0125ZM238.371 24.1836V33.8995H235.185V17.5359H238.243V20.1993H238.445C238.822 19.3328 239.411 18.6368 240.214 18.1112C241.023 17.5856 242.042 17.3228 243.271 17.3228C244.386 17.3228 245.363 17.5572 246.201 18.026C247.039 18.4876 247.689 19.1765 248.15 20.0927C248.612 21.0089 248.843 22.1417 248.843 23.4912V33.8995H245.657V23.8747C245.657 22.6886 245.349 21.7618 244.731 21.0941C244.113 20.4194 243.264 20.0821 242.184 20.0821C241.446 20.0821 240.789 20.2419 240.214 20.5615C239.645 20.8811 239.194 21.3498 238.861 21.9677C238.534 22.5785 238.371 23.3171 238.371 24.1836ZM265.407 21.5309L262.52 22.0423C262.399 21.673 262.207 21.3214 261.945 20.9876C261.689 20.6538 261.341 20.3804 260.901 20.1673C260.46 19.9542 259.91 19.8477 259.249 19.8477C258.347 19.8477 257.594 20.0501 256.991 20.4549C256.387 20.8527 256.085 21.3676 256.085 21.9997C256.085 22.5466 256.288 22.9869 256.692 23.3207C257.097 23.6545 257.751 23.9279 258.653 24.141L261.252 24.7376C262.758 25.0856 263.88 25.6218 264.619 26.3463C265.357 27.0707 265.727 28.0118 265.727 29.1694C265.727 30.1495 265.442 31.0231 264.874 31.7902C264.313 32.5501 263.528 33.1467 262.52 33.5799C261.518 34.0132 260.357 34.2298 259.036 34.2298C257.204 34.2298 255.709 33.8392 254.551 33.0579C253.393 32.2696 252.683 31.151 252.42 29.7021L255.499 29.2333C255.691 30.0359 256.085 30.6431 256.682 31.0551C257.278 31.4599 258.056 31.6623 259.015 31.6623C260.059 31.6623 260.893 31.4457 261.518 31.0125C262.143 30.5721 262.456 30.0359 262.456 29.4038C262.456 28.8924 262.264 28.4627 261.881 28.1147C261.504 27.7667 260.925 27.5039 260.144 27.3264L257.374 26.7191C255.847 26.3711 254.718 25.8171 253.986 25.0572C253.262 24.2973 252.9 23.3349 252.9 22.1701C252.9 21.2042 253.17 20.3591 253.709 19.6346C254.249 18.9102 254.995 18.3456 255.947 17.9407C256.898 17.5288 257.989 17.3228 259.217 17.3228C260.986 17.3228 262.378 17.7064 263.393 18.4734C264.409 19.2333 265.08 20.2525 265.407 21.5309ZM271.272 40.0359C270.796 40.0359 270.363 39.9968 269.973 39.9187C269.582 39.8477 269.291 39.7696 269.099 39.6843L269.866 37.0743C270.448 37.2305 270.967 37.298 271.421 37.2767C271.876 37.2554 272.277 37.0849 272.625 36.7653C272.98 36.4457 273.293 35.9237 273.563 35.1993L273.957 34.1126L267.97 17.5359H271.379L275.523 30.2348H275.694L279.838 17.5359H283.257L276.514 36.0835C276.201 36.9358 275.804 37.6566 275.321 38.2461C274.838 38.8427 274.262 39.2902 273.595 39.5885C272.927 39.8868 272.153 40.0359 271.272 40.0359ZM298.543 21.5309L295.656 22.0423C295.535 21.673 295.344 21.3214 295.081 20.9876C294.825 20.6538 294.477 20.3804 294.037 20.1673C293.596 19.9542 293.046 19.8477 292.385 19.8477C291.483 19.8477 290.731 20.0501 290.127 20.4549C289.523 20.8527 289.221 21.3676 289.221 21.9997C289.221 22.5466 289.424 22.9869 289.829 23.3207C290.233 23.6545 290.887 23.9279 291.789 24.141L294.388 24.7376C295.894 25.0856 297.016 25.6218 297.755 26.3463C298.493 27.0707 298.863 28.0118 298.863 29.1694C298.863 30.1495 298.579 31.0231 298.01 31.7902C297.449 32.5501 296.665 33.1467 295.656 33.5799C294.655 34.0132 293.493 34.2298 292.172 34.2298C290.34 34.2298 288.845 33.8392 287.687 33.0579C286.53 32.2696 285.819 31.151 285.557 29.7021L288.635 29.2333C288.827 30.0359 289.221 30.6431 289.818 31.0551C290.415 31.4599 291.192 31.6623 292.151 31.6623C293.195 31.6623 294.03 31.4457 294.655 31.0125C295.28 30.5721 295.592 30.0359 295.592 29.4038C295.592 28.8924 295.4 28.4627 295.017 28.1147C294.64 27.7667 294.062 27.5039 293.28 27.3264L290.51 26.7191C288.983 26.3711 287.854 25.8171 287.123 25.0572C286.398 24.2973 286.036 23.3349 286.036 22.1701C286.036 21.2042 286.306 20.3591 286.846 19.6346C287.385 18.9102 288.131 18.3456 289.083 17.9407C290.035 17.5288 291.125 17.3228 292.353 17.3228C294.122 17.3228 295.514 17.7064 296.53 18.4734C297.545 19.2333 298.216 20.2525 298.543 21.5309ZM310.034 17.5359V20.0927H301.095V17.5359H310.034ZM303.492 13.6154H306.678V29.0948C306.678 29.7127 306.77 30.1779 306.955 30.4904C307.139 30.7958 307.377 31.0054 307.668 31.119C307.967 31.2255 308.29 31.2788 308.638 31.2788C308.894 31.2788 309.117 31.261 309.309 31.2255C309.501 31.19 309.65 31.1616 309.757 31.1403L310.332 33.7717C310.147 33.8427 309.884 33.9137 309.543 33.9848C309.203 34.0629 308.776 34.1055 308.265 34.1126C307.427 34.1268 306.646 33.9777 305.921 33.6652C305.197 33.3527 304.611 32.8697 304.163 32.2163C303.716 31.5629 303.492 30.7426 303.492 29.7554V13.6154ZM320.464 34.2298C318.852 34.2298 317.463 33.8853 316.298 33.1964C315.141 32.5004 314.246 31.5238 313.614 30.2667C312.989 29.0025 312.676 27.5217 312.676 25.8243C312.676 24.1481 312.989 22.6708 313.614 21.3924C314.246 20.114 315.127 19.1162 316.256 18.3988C317.392 17.6815 318.72 17.3228 320.24 17.3228C321.163 17.3228 322.058 17.4755 322.925 17.7809C323.791 18.0863 324.569 18.5657 325.258 19.2191C325.947 19.8725 326.49 20.7213 326.888 21.7653C327.286 22.8022 327.484 24.0629 327.484 25.5473V26.6765H314.477V24.2902H324.363C324.363 23.4521 324.193 22.7099 323.852 22.0636C323.511 21.4102 323.031 20.8953 322.413 20.5189C321.803 20.1424 321.085 19.9542 320.261 19.9542C319.367 19.9542 318.585 20.1744 317.918 20.6147C317.257 21.048 316.746 21.6162 316.384 22.3193C316.029 23.0153 315.851 23.7717 315.851 24.5885V26.4528C315.851 27.5466 316.043 28.477 316.426 29.244C316.817 30.011 317.36 30.597 318.056 31.0018C318.752 31.3995 319.565 31.5984 320.496 31.5984C321.1 31.5984 321.65 31.5132 322.147 31.3427C322.644 31.1652 323.074 30.9024 323.436 30.5544C323.798 30.2064 324.075 29.7767 324.267 29.2653L327.282 29.8086C327.041 30.6964 326.607 31.4741 325.982 32.1417C325.364 32.8022 324.587 33.3171 323.649 33.6865C322.719 34.0487 321.657 34.2298 320.464 34.2298ZM331.049 33.8995V17.5359H334.106V20.1993H334.309C334.65 19.2973 335.207 18.5941 335.981 18.0899C336.755 17.5785 337.682 17.3228 338.762 17.3228C339.856 17.3228 340.772 17.5785 341.51 18.0899C342.256 18.6012 342.807 19.3044 343.162 20.1993H343.332C343.723 19.3257 344.344 18.6296 345.197 18.1112C346.049 17.5856 347.064 17.3228 348.243 17.3228C349.728 17.3228 350.939 17.788 351.876 18.7184C352.821 19.6488 353.293 21.0515 353.293 22.9265V33.8995H350.108V23.2248C350.108 22.1169 349.806 21.3143 349.202 20.8171C348.598 20.32 347.878 20.0714 347.04 20.0714C346.003 20.0714 345.197 20.391 344.621 21.0302C344.046 21.6623 343.758 22.4755 343.758 23.4698V33.8995H340.584V23.0224C340.584 22.1346 340.307 21.4208 339.753 20.8811C339.199 20.3413 338.478 20.0714 337.59 20.0714C336.986 20.0714 336.429 20.2312 335.917 20.5508C335.413 20.8633 335.005 21.3001 334.692 21.8612C334.387 22.4223 334.234 23.0721 334.234 23.8108V33.8995H331.049Z" fill="#1E2B3C"/>
<defs>
<filter id="filter0_d_156_644" x="0.414307" y="0.414185" width="46.9705" height="47.9706" filterUnits="userSpaceOnUse" color-interpolation-filters="sRGB">
<feFlood flood-opacity="0" result="BackgroundImageFix"/>
<feColorMatrix in="SourceAlpha" type="matrix" values="0 0 0 0 0 0 0 0 0 0 0 0 0 0 0 0 0 0 127 0" result="hardAlpha"/>
<feOffset dy="2"/>
<feGaussianBlur stdDeviation="0.5"/>
<feComposite in2="hardAlpha" operator="out"/>
<feColorMatrix type="matrix" values="0 0 0 0 0 0 0 0 0 0 0 0 0 0 0 0 0 0 0.04 0"/>
<feBlend mode="normal" in2="BackgroundImageFix" result="effect1_dropShadow_156_644"/>
<feBlend mode="normal" in="SourceGraphic" in2="effect1_dropShadow_156_644" result="shape"/>
</filter>
</defs>
</svg>
